HIERARCHY
ROOT Hips
{
	OFFSET 0.00000 0.00000 0.00000
	CHANNELS 6 Xposition Yposition Zposition Zrotation Yrotation Xrotation 
	JOINT LHipJoint
	{
		OFFSET 0 0 0
		CHANNELS 3 Zrotation Yrotation Xrotation
		JOINT LeftUpLeg
		{
			OFFSET 1.44361 -1.63093 0.70831
			CHANNELS 3 Zrotation Yrotation Xrotation
			JOINT LeftLeg
			{
				OFFSET 2.20103 -6.04728 0.00000
				CHANNELS 3 Zrotation Yrotation Xrotation
				JOINT LeftFoot
				{
					OFFSET 2.54154 -6.98283 0.00000
					CHANNELS 3 Zrotation Yrotation Xrotation
					JOINT LeftToeBase
					{
						OFFSET 0.05971 -0.16406 1.77582
						CHANNELS 3 Zrotation Yrotation Xrotation
						End Site
						{
							OFFSET 0.00000 -0.00000 0.90832
						}
					}
				}
			}
		}
	}
	JOINT RHipJoint
	{
		OFFSET 0 0 0
		CHANNELS 3 Zrotation Yrotation Xrotation
		JOINT RightUpLeg
		{
			OFFSET -1.65838 -1.63093 0.70830
			CHANNELS 3 Zrotation Yrotation Xrotation
			JOINT RightLeg
			{
				OFFSET -2.26926 -6.23475 0.00000
				CHANNELS 3 Zrotation Yrotation Xrotation
				JOINT RightFoot
				{
					OFFSET -2.34808 -6.45129 0.00000
					CHANNELS 3 Zrotation Yrotation Xrotation
					JOINT RightToeBase
					{
						OFFSET -0.18633 -0.51195 1.68539
						CHANNELS 3 Zrotation Yrotation Xrotation
						End Site
						{
							OFFSET -0.00000 -0.00000 0.88927
						}
					}
				}
			}
		}
	}
	JOINT LowerBack
	{
		OFFSET 0 0 0
		CHANNELS 3 Zrotation Yrotation Xrotation
		JOINT Spine
		{
			OFFSET -0.10393 2.01691 0.06920
			CHANNELS 3 Zrotation Yrotation Xrotation
			JOINT Spine1
			{
				OFFSET 0.04092 2.01302 -0.05283
				CHANNELS 3 Zrotation Yrotation Xrotation
				JOINT Neck
				{
					OFFSET 0 0 0
					CHANNELS 3 Zrotation Yrotation Xrotation
					JOINT Neck1
					{
						OFFSET -0.02870 1.58978 -0.03113
						CHANNELS 3 Zrotation Yrotation Xrotation
						JOINT Head
						{
							OFFSET 0.11532 1.54326 -0.29195
							CHANNELS 3 Zrotation Yrotation Xrotation
							End Site
							{
								OFFSET 0.04056 1.59999 -0.09535
							}
						}
					}
				}
				JOINT LeftShoulder
				{
					OFFSET 0 0 0
					CHANNELS 3 Zrotation Yrotation Xrotation
					JOINT LeftArm
					{
						OFFSET 3.30641 1.15764 0.01104
						CHANNELS 3 Zrotation Yrotation Xrotation
						JOINT LeftForeArm
						{
							OFFSET 4.63208 -0.00000 0.00000
							CHANNELS 3 Zrotation Yrotation Xrotation
							JOINT LeftHand
							{
								OFFSET 3.41924 -0.00000 -0.00000
								CHANNELS 3 Zrotation Yrotation Xrotation
								JOINT LeftFingerBase
								{
									OFFSET 0 0 0
									CHANNELS 3 Zrotation Yrotation Xrotation
									JOINT LeftHandIndex1
									{
										OFFSET 0.62537 -0.00000 -0.00000
										CHANNELS 3 Zrotation Yrotation Xrotation
										End Site
										{
											OFFSET 0.50419 -0.00000 -0.00000
										}
									}
								}
								JOINT LThumb
								{
									OFFSET 0 0 0
									CHANNELS 3 Zrotation Yrotation Xrotation
									End Site
									{
										OFFSET 0.51189 -0.00000 0.51189
									}
								}
							}
						}
					}
				}
				JOINT RightShoulder
				{
					OFFSET 0 0 0
					CHANNELS 3 Zrotation Yrotation Xrotation
					JOINT RightArm
					{
						OFFSET -3.78081 1.02180 -0.16609
						CHANNELS 3 Zrotation Yrotation Xrotation
						JOINT RightForeArm
						{
							OFFSET -4.40640 -0.00000 -0.00000
							CHANNELS 3 Zrotation Yrotation Xrotation
							JOINT RightHand
							{
								OFFSET -3.44675 -0.00000 0.00000
								CHANNELS 3 Zrotation Yrotation Xrotation
								JOINT RightFingerBase
								{
									OFFSET 0 0 0
									CHANNELS 3 Zrotation Yrotation Xrotation
									JOINT RightHandIndex1
									{
										OFFSET -0.51367 -0.00000 -0.00000
										CHANNELS 3 Zrotation Yrotation Xrotation
										End Site
										{
											OFFSET -0.41414 -0.00000 -0.00000
										}
									}
								}
								JOINT RThumb
								{
									OFFSET 0 0 0
									CHANNELS 3 Zrotation Yrotation Xrotation
									End Site
									{
										OFFSET -0.42046 -0.00000 0.42046
									}
								}
							}
						}
					}
				}
			}
		}
	}
}
MOTION
Frames: 14
Frame Time: .0083333
7.1284 16.647 36.4817 0 0 0 0 0 0 -21 0 0 0 0 0 0 0 0 0 0 0 0 0 0 21 0 0 0 0 0 0 0 0 0 0 0 0 0 0 0 0 0 0 0 0 0 0 -16 0 0 21 0 0 11 0 0 0 -8 0 0 0 0 0 0 0 0 0 0 0 0 0 0 0 0 0 0 0 0 8 0 0 0 0 0 0 0 0 0 0 0 0 0 0 0 0 0
7.1284 16.6470 36.4817 178.9670 2.6861 -170.3910 0.0000 0.0000 0.0000 -22.3806 -10.0717 -3.4036 0.3145 3.6053 9.9687 0.7733 -0.6226 -16.4182 11.6266 -18.2283 -64.8001 0.0000 0.0000 0.0000 19.5852 4.0516 -4.5407 -0.2040 -2.9079 8.0224 -0.6091 3.0787 -14.0148 -1.7450 8.3133 -23.6699 -7.3784 1.1991 -7.6037 1.2596 2.2461 1.4082 5.7517 0.8525 5.4269 -3.9762 -0.1661 -6.9228 6.6865 -4.4488 29.1558 2.4141 -2.7710 10.6858 0.0000 0.0000 0.0000 -90.4131 -1.2908 21.0781 9.8459 -16.4982 -1.4309 -0.0000 -0.0000 27.4057 25.2498 -17.2351 -7.9550 -7.1250 0.0000 -0.0000 -1.7552 11.0550 1.3867 0.0000 0.0000 0.0000 93.9434 -10.5259 -14.0081 -12.5960 20.6924 -2.3086 0.0000 0.0000 16.0183 -16.3872 -37.9521 10.2514 7.1250 -0.0000 -0.0000 25.0383 -67.5121 -13.9036
7.1288 16.6464 36.4791 178.9800 2.6983 -170.3670 0.0000 0.0000 0.0000 -22.3394 -10.0370 -3.4484 0.3155 3.6105 9.9833 0.7776 -0.6571 -16.4544 11.6213 -18.2259 -64.7833 0.0000 0.0000 0.0000 19.6049 4.1639 -4.5512 -0.2089 -2.9424 8.1184 -0.6190 3.0408 -14.1373 -1.7301 8.2797 -23.5669 -7.4161 1.1523 -7.6567 1.3374 2.1870 1.4021 5.8515 0.8196 5.4556 -4.0763 -0.0827 -6.8093 6.6207 -4.3427 29.2861 2.4203 -2.7552 10.7049 0.0000 -0.0000 0.0000 -90.5842 -1.1731 20.6152 9.7444 -16.3388 -1.4022 -0.0000 -0.0000 27.7110 25.1461 -17.0370 -7.8310 -7.1250 0.0000 -0.0000 -1.8059 11.2849 1.4183 0.0000 -0.0000 0.0000 93.9267 -10.6071 -13.8561 -12.6253 20.7357 -2.3189 0.0000 0.0000 16.0467 -16.6850 -37.7881 10.4068 7.1250 -0.0000 -0.0000 24.4804 -67.4579 -13.5488
7.1288 16.6460 36.4763 179.0360 2.7030 -170.3200 0.0000 0.0000 0.0000 -22.2367 -9.9696 -3.5412 0.3170 3.6194 10.0084 0.7794 -0.7968 -16.4312 11.5800 -18.2074 -64.6513 0.0000 0.0000 0.0000 19.6714 4.1814 -4.6066 -0.2108 -2.9562 8.1569 -0.6223 2.9959 -14.1823 -1.7917 8.4179 -23.9909 -7.3863 1.1379 -7.7457 1.3915 2.1689 1.3962 5.8936 0.8087 5.5017 -4.0337 -0.0453 -6.6737 6.4714 -4.2918 29.3612 2.3649 -2.7555 10.6989 0.0000 0.0000 0.0000 -90.6745 -1.0802 20.2468 9.6196 -16.1424 -1.3673 -0.0000 -0.0000 28.0142 24.9889 -16.9399 -7.7334 -7.1250 0.0000 -0.0000 -1.9013 11.4132 1.4883 0.0000 0.0000 0.0000 93.9989 -10.7221 -13.6783 -12.6746 20.8085 -2.3364 0.0000 0.0000 16.0015 -15.5566 -37.4690 9.6120 7.1250 -0.0000 -0.0000 25.3534 -66.8416 -13.7040
7.1278 16.6452 36.4699 179.0380 2.6906 -170.2650 0.0000 0.0000 0.0000 -22.2323 -9.9273 -3.5665 0.3141 3.6028 9.9619 0.7742 -0.8297 -16.3662 11.5873 -18.2107 -64.6746 0.0000 0.0000 0.0000 19.6668 4.0796 -4.6663 -0.2109 -2.9564 8.1574 -0.6270 3.0266 -14.2336 -1.8600 8.5682 -24.4537 -7.3849 1.1485 -7.8732 1.3951 2.1928 1.3981 5.9047 0.8173 5.5725 -3.9598 -0.0456 -6.6889 6.4093 -4.3165 29.4683 2.3264 -2.7710 10.7418 0.0000 -0.0000 0.0000 -90.6852 -0.9269 20.1294 9.5387 -16.0147 -1.3449 -0.0000 -0.0000 28.2100 24.9621 -17.1002 -7.7941 -7.1250 0.0000 -0.0000 -1.9330 11.2438 1.5199 0.0000 -0.0000 0.0000 94.1816 -10.8174 -13.4918 -12.7603 20.9350 -2.3670 0.0000 0.0000 15.7503 -15.5920 -37.4599 9.6326 7.1250 -0.0000 -0.0000 25.3018 -66.8440 -13.6760
7.1242 16.6425 36.4619 178.9590 2.6828 -170.2110 0.0000 0.0000 0.0000 -22.3751 -9.9678 -3.5442 0.3116 3.5887 9.9223 0.7718 -0.7402 -16.3666 11.6180 -18.2244 -64.7726 0.0000 0.0000 0.0000 19.5420 3.9222 -4.7351 -0.2103 -2.9525 8.1464 -0.6305 3.1698 -14.2562 -1.8517 8.5502 -24.3980 -7.4148 1.1648 -8.0141 1.3478 2.2316 1.4023 5.8816 0.8325 5.6521 -3.8952 -0.0520 -6.7528 6.4378 -4.3687 29.5676 2.3190 -2.7878 10.7956 -0.0000 -0.0000 0.0000 -90.6521 -0.7336 20.1607 9.4922 -15.9414 -1.3321 -0.0000 -0.0000 28.3077 25.0697 -17.4241 -7.9739 -7.1250 0.0000 -0.0000 -1.8907 10.8775 1.5007 -0.0000 -0.0000 0.0000 94.4285 -10.8480 -13.5006 -12.8469 21.0625 -2.3980 0.0000 0.0000 15.7114 -16.7134 -37.7962 10.4270 7.1250 -0.0000 -0.0000 24.4583 -67.4735 -13.5446
7.1203 16.6389 36.4587 178.8870 2.6707 -170.1670 0.0000 0.0000 0.0000 -22.4964 -10.0368 -3.5724 0.3135 3.5991 9.9515 0.7718 -0.6600 -16.3903 11.6371 -18.2330 -64.8339 0.0000 0.0000 0.0000 19.4275 3.8642 -4.8151 -0.2114 -2.9602 8.1679 -0.6269 3.2088 -14.2096 -1.8844 8.6211 -24.6170 -7.4442 1.1357 -8.0906 1.3360 2.2027 1.4039 5.8857 0.8151 5.7014 -3.9362 -0.0027 -6.6418 6.5099 -4.3121 29.5128 2.3593 -2.7625 10.7508 0.0000 -0.0000 0.0000 -90.7224 -0.5970 19.8821 9.4208 -15.8285 -1.3125 -0.0000 -0.0000 28.5824 25.1105 -17.4382 -7.9947 -7.1250 0.0000 -0.0000 -1.8651 10.8561 1.4812 0.0000 -0.0000 0.0000 94.5351 -10.8427 -13.4588 -12.8730 21.1009 -2.4074 0.0000 0.0000 15.8463 -16.5402 -38.0102 10.3637 7.1250 -0.0000 -0.0000 24.9402 -67.6093 -13.9008
7.1164 16.6366 36.4571 178.8270 2.6547 -170.1550 0.0000 0.0000 0.0000 -22.5960 -10.0680 -3.5591 0.3122 3.5921 9.9317 0.7718 -0.6331 -16.3989 11.6786 -18.2514 -64.9663 0.0000 0.0000 0.0000 19.3368 3.8665 -4.8473 -0.2134 -2.9738 8.2059 -0.6243 3.2011 -14.1798 -1.8882 8.6292 -24.6422 -7.4829 1.0976 -8.1021 1.3451 2.1561 1.3988 5.9123 0.7905 5.7083 -3.9743 0.0623 -6.5045 6.5780 -4.2591 29.5249 2.3971 -2.7460 10.7261 -0.0000 0.0000 0.0000 -90.8362 -0.4833 19.4520 9.3178 -15.6655 -1.2846 -0.0000 -0.0000 28.9408 25.0333 -17.2921 -7.9031 -7.1250 0.0000 -0.0000 -1.9029 11.0256 1.5047 -0.0000 0.0000 0.0000 94.5687 -10.8692 -13.3055 -12.8675 21.0928 -2.4054 0.0000 0.0000 15.8076 -16.0124 -37.8264 9.9816 7.1250 -0.0000 -0.0000 25.3002 -67.2896 -13.9298
7.1120 16.6362 36.4535 178.8300 2.6456 -170.1310 0.0000 0.0000 0.0000 -22.6271 -10.1138 -3.5446 0.3115 3.5878 9.9197 0.7759 -0.6920 -16.4250 11.6705 -18.2479 -64.9406 0.0000 0.0000 0.0000 19.3181 3.8306 -4.8810 -0.2150 -2.9848 8.2365 -0.6240 3.2244 -14.1729 -1.8879 8.6286 -24.6402 -7.4625 1.0713 -8.1503 1.3697 2.1218 1.4111 5.9252 0.7713 5.7540 -4.0041 0.0659 -6.4383 6.6749 -4.2967 29.5254 2.4332 -2.7627 10.7181 0.0000 0.0000 0.0000 -90.9428 -0.4167 19.0275 9.1941 -15.4692 -1.2514 -0.0000 -0.0000 29.3049 24.9841 -17.2688 -7.8755 -7.1250 0.0000 -0.0000 -1.9332 11.0583 1.5274 0.0000 0.0000 0.0000 94.5859 -10.7817 -13.3222 -12.7572 20.9304 -2.3658 0.0000 0.0000 16.2523 -16.0121 -37.4592 9.9005 7.1250 -0.0000 -0.0000 24.8244 -66.9677 -13.4740
7.1093 16.6366 36.4517 178.9360 2.6185 -170.0440 0.0000 0.0000 0.0000 -22.4954 -10.2003 -3.6511 0.3155 3.6109 9.9845 0.7790 -0.7449 -16.4430 11.6253 -18.2277 -64.7960 0.0000 0.0000 0.0000 19.4335 3.8377 -4.9843 -0.2162 -2.9933 8.2601 -0.6224 3.1395 -14.1644 -2.0224 8.9126 -25.5223 -7.3532 1.0487 -8.2463 1.4293 2.0849 1.4277 5.9266 0.7516 5.8332 -4.0621 0.0520 -6.4603 6.7461 -4.3285 29.5208 2.4655 -2.7754 10.7253 -0.0000 0.0000 0.0000 -91.0516 -0.4211 18.6528 9.0804 -15.2885 -1.2212 -0.0000 -0.0000 29.5907 24.9544 -17.1941 -7.8324 -7.1250 0.0000 -0.0000 -1.9462 11.1434 1.5343 -0.0000 0.0000 0.0000 94.6198 -10.6147 -13.3771 -12.5539 20.6301 -2.2937 0.0000 0.0000 17.4792 -16.6626 -36.9054 10.1890 7.1250 -0.0000 -0.0000 23.3911 -66.6689 -12.5011
7.1079 16.6365 36.4496 179.0510 2.6437 -169.9500 0.0000 0.0000 0.0000 -22.3395 -10.2400 -3.7475 0.3171 3.6201 10.0102 0.7835 -0.7479 -16.4903 11.6020 -18.2173 -64.7217 0.0000 0.0000 0.0000 19.5652 3.9217 -5.0794 -0.2168 -2.9977 8.2723 -0.6217 3.0594 -14.1666 -2.1214 9.1146 -26.1544 -7.2481 1.0702 -8.3285 1.4738 2.1062 1.4141 5.9199 0.7640 5.8637 -4.0377 0.0502 -6.4713 6.7358 -4.3637 29.6192 2.4534 -2.7961 10.7668 0.0000 0.0000 0.0000 -91.1130 -0.3530 18.4479 9.0076 -15.1726 -1.2021 -0.0000 -0.0000 29.7300 24.8482 -16.8577 -7.6487 -7.1250 0.0000 -0.0000 -1.9873 11.5226 1.5512 0.0000 0.0000 0.0000 94.6960 -10.4913 -13.7117 -12.6405 20.7582 -2.3243 0.0000 0.0000 17.0423 -15.8564 -37.3021 9.7666 7.1250 -0.0000 -0.0000 24.8018 -66.7834 -13.3576
7.1062 16.6353 36.4462 179.0500 2.7332 -169.9350 0.0000 0.0000 0.0000 -22.3485 -10.2040 -3.7301 0.3146 3.6056 9.9697 0.7886 -0.7426 -16.5455 11.5692 -18.2025 -64.6166 0.0000 0.0000 0.0000 19.5501 3.9971 -5.0787 -0.2167 -2.9969 8.2701 -0.6214 3.0876 -14.1600 -2.0713 9.0130 -25.8360 -7.2698 1.1025 -8.3453 1.4959 2.1520 1.4251 5.9623 0.7845 5.8763 -3.9844 0.0478 -6.4683 6.6577 -4.3818 29.7095 2.4135 -2.8126 10.7994 0.0000 0.0000 0.0000 -91.1980 -0.2756 18.2598 8.9594 -15.0958 -1.1895 -0.0000 -0.0000 29.8279 24.6453 -16.3311 -7.3510 -7.1250 0.0000 -0.0000 -2.0783 12.1205 1.5967 0.0000 0.0000 0.0000 94.7810 -10.4667 -13.7582 -12.7102 20.8611 -2.3491 0.0000 0.0000 17.1058 -16.0586 -37.5924 9.9597 7.1250 -0.0000 -0.0000 24.9427 -67.0985 -13.6153
7.1043 16.6343 36.4455 178.9900 2.7809 -169.9700 0.0000 0.0000 0.0000 -22.4323 -10.1477 -3.6854 0.3119 3.5905 9.9274 0.7828 -0.7245 -16.4895 11.5741 -18.2048 -64.6325 0.0000 0.0000 0.0000 19.4634 4.0001 -5.0462 -0.2177 -3.0039 8.2897 -0.6234 3.1632 -14.1733 -1.9960 8.8577 -25.3512 -7.3373 1.1231 -8.2937 1.5063 2.1831 1.4668 6.0147 0.7956 5.8842 -3.9908 0.0274 -6.5385 6.6220 -4.4053 29.7655 2.3987 -2.8262 10.8358 -0.0000 0.0000 0.0000 -91.2813 -0.2640 18.0469 8.8763 -14.9630 -1.1680 -0.0000 -0.0000 30.0867 24.7042 -16.0356 -7.2422 -7.1250 0.0000 -0.0000 -2.0153 12.4320 1.5352 -0.0000 0.0000 0.0000 94.8356 -10.4342 -13.6591 -12.7112 20.8625 -2.3494 0.0000 0.0000 17.5341 -16.5779 -37.8701 10.3563 7.1250 -0.0000 -0.0000 24.7111 -67.4977 -13.7049
7.1027 16.6339 36.4460 178.9690 2.7982 -169.9780 0.0000 0.0000 0.0000 -22.4623 -10.1141 -3.6839 0.3108 3.5837 9.9084 0.7731 -0.7030 -16.3915 11.5929 -18.2132 -64.6924 0.0000 0.0000 0.0000 19.4321 3.9820 -5.0604 -0.2197 -3.0173 8.3270 -0.6274 3.2163 -14.2144 -1.9592 8.7806 -25.1114 -7.3550 1.1534 -8.2656 1.4992 2.2239 1.4772 6.0211 0.8155 5.8725 -3.9585 0.0048 -6.5742 6.6061 -4.4673 29.8657 2.3799 -2.8571 10.8847 0.0000 0.0000 0.0000 -91.2729 -0.1501 18.0018 8.8117 -14.8599 -1.1514 -0.0000 -0.0000 30.3583 24.9781 -15.8067 -7.2317 -7.1250 0.0000 -0.0000 -1.8140 12.6423 1.3737 0.0000 0.0000 0.0000 94.9360 -10.4029 -13.6812 -12.7127 20.8648 -2.3500 0.0000 0.0000 17.6514 -16.7012 -38.2001 10.5115 7.1250 -0.0000 -0.0000 25.0104 -67.8242 -14.0625
